<svg width="45" height="6" viewBox="0 0 45 6" fill="none" xmlns="http://www.w3.org/2000/svg">
<path d="M44.6667 3C44.6667 1.52724 43.4728 0.333333 42 0.333333C40.5272 0.333333 39.3333 1.52724 39.3333 3C39.3333 4.47276 40.5272 5.66667 42 5.66667C43.4728 5.66667 44.6667 4.47276 44.6667 3ZM42 3L42 2.5L6 2.5L6 3L6 3.5L42 3.5L42 3Z" fill="black"/>
<path d="M0.333333 3C0.333333 1.52724 1.52724 0.333333 3 0.333333C4.47276 0.333333 5.66667 1.52724 5.66667 3C5.66667 4.47276 4.47276 5.66667 3 5.66667C1.52724 5.66667 0.333333 4.47276 0.333333 3ZM3 3L3 2.5L39 2.5L39 3L39 3.5L3 3.5L3 3Z" fill="black"/>
</svg>
