<svg width="20" height="20" viewBox="0 0 20 20" fill="none" xmlns="http://www.w3.org/2000/svg">
<path d="M14.0596 2.08919C14.6158 1.86243 15.2364 1.84583 15.8037 2.04329C16.3708 2.24072 16.8464 2.63858 17.1416 3.16145C17.4368 3.68445 17.5312 4.2975 17.4072 4.88509C17.2831 5.47273 16.9493 5.9958 16.4678 6.35481C15.9862 6.71383 15.3897 6.88511 14.791 6.83626C14.1923 6.7874 13.6319 6.52154 13.2148 6.08919L13.2021 6.07649L13.1865 6.08528L7.40527 9.33821L7.38965 9.347L7.39453 9.36458C7.50535 9.78104 7.50543 10.2196 7.39453 10.6361L7.38965 10.6536L7.40527 10.6624L13.1865 13.9154L13.2021 13.9241L13.2148 13.9105C13.4453 13.6694 13.7226 13.478 14.0293 13.347C14.336 13.216 14.6665 13.1486 15 13.1488C15.5171 13.1488 16.021 13.3106 16.4414 13.6116C16.8619 13.9128 17.1782 14.3378 17.3447 14.8275C17.5113 15.3171 17.5198 15.847 17.3701 16.3421C17.2204 16.8371 16.9197 17.2729 16.5098 17.5882C16.0998 17.9035 15.6009 18.0823 15.084 18.0999C14.5671 18.1175 14.0574 17.9734 13.627 17.6868C13.1966 17.4003 12.8667 16.9858 12.6836 16.5023C12.5005 16.0186 12.4737 15.4894 12.6064 14.9896L12.6113 14.972L12.5947 14.9632L6.81348 11.7103L6.79785 11.7015L6.78516 11.7142C6.44315 12.0707 6.00252 12.3172 5.51953 12.4212C5.03641 12.5252 4.53275 12.4825 4.07422 12.2982C3.61581 12.1139 3.22299 11.7963 2.94629 11.387C2.66963 10.9776 2.52155 10.4944 2.52148 10.0003C2.52148 9.50612 2.6696 9.02308 2.94629 8.6136C3.22298 8.20415 3.61572 7.88683 4.07422 7.70247C4.53277 7.51812 5.03637 7.47445 5.51953 7.57845C6.00247 7.68245 6.44316 7.929 6.78516 8.28548L6.79785 8.29915L6.81348 8.29036L12.5947 5.03743L12.6113 5.02864L12.6064 5.01106C12.4518 4.43068 12.5138 3.81346 12.7812 3.27571C13.0488 2.73799 13.5034 2.31597 14.0596 2.08919Z" fill="black" stroke="#112211" stroke-width="0.046875"/>
</svg>
