<svg width="24" height="25" viewBox="0 0 24 25" fill="none" xmlns="http://www.w3.org/2000/svg">
<path d="M21.7266 8V9.26074C21.7231 9.43304 21.6804 9.60211 21.6025 9.75586C21.5246 9.90974 21.4133 10.0446 21.2764 10.1494H21.2754L14.1504 16.0117L14.1416 16.0186L14.1426 16.0303L14.2139 18.7383V18.7393C14.2246 18.9371 14.2275 19.4852 14.2275 19.6123C14.2268 20.9053 14.0167 21.9349 13.6328 22.6406C13.2494 23.3454 12.6941 23.7266 12 23.7266C11.7813 23.7266 11.4694 23.682 11.1475 23.4922C10.8258 23.3025 10.4922 22.9656 10.2324 22.377C9.92499 21.6812 9.76855 20.7512 9.76855 19.6113C9.76856 19.4855 9.77248 18.9389 9.7832 18.7383V18.7373L9.85547 16.0303V16.0186L9.84668 16.0107L2.72168 10.1348C2.5853 10.0298 2.47401 9.89483 2.39648 9.74121C2.31907 9.58772 2.27686 9.41894 2.27344 9.24707V8C2.27348 7.87863 2.30424 7.75892 2.3623 7.65234C2.42045 7.54571 2.50436 7.45449 2.60645 7.38867C2.7084 7.32301 2.82535 7.28436 2.94629 7.27539C3.06742 7.26645 3.18916 7.28779 3.2998 7.33789L9.96777 10.3594L10 10.374L10.001 10.3389L10.1016 5.80176V5.79004L10.0928 5.7832L8.08789 4.12793C7.89049 3.97089 7.75064 3.83149 7.65918 3.65332C7.56781 3.47532 7.52348 3.2563 7.52344 2.9375V2.09668C7.51928 1.96745 7.54656 1.83823 7.60254 1.72168C7.64452 1.63442 7.70189 1.55583 7.77148 1.48926L7.84473 1.42676C7.97215 1.33228 8.17762 1.23834 8.46484 1.28613L8.59375 1.31641L11.9219 2.24512L11.9941 2.26953L11.998 2.27051H12.0137L12.0176 2.26953L12.0898 2.24512L15.4395 1.31543C15.7878 1.21701 16.0298 1.32455 16.1719 1.43164C16.2673 1.50362 16.3446 1.59688 16.3975 1.7041C16.4372 1.78482 16.4631 1.87193 16.4727 1.96094L16.4766 2.0498V2.9375C16.4764 3.35127 16.3141 3.75407 16.0449 4.02832L15.9229 4.1377L13.9512 5.75781L13.9424 5.76562L13.9434 5.77637L14.0107 10.3389V10.374L14.0439 10.3594L20.7002 7.33887C20.8106 7.28882 20.9318 7.2666 21.0527 7.27539C21.1739 7.28424 21.2914 7.32393 21.3936 7.38965C21.4955 7.45535 21.5795 7.54589 21.6377 7.65234C21.6813 7.73225 21.7093 7.81939 21.7207 7.90918L21.7266 8Z" fill="#112211" stroke="#112211" stroke-width="0.046875"/>
</svg>
