<svg width="16" height="17" viewBox="0 0 16 17" fill="none" xmlns="http://www.w3.org/2000/svg">
<path d="M12.3131 15.5C12.2079 15.5004 12.1052 15.4676 12.0197 15.4062L8.00064 12.4925L3.98158 15.4062C3.89571 15.4685 3.79227 15.5019 3.6862 15.5015C3.58012 15.5011 3.47692 15.467 3.39151 15.4041C3.3061 15.3412 3.24291 15.2528 3.21107 15.1516C3.17923 15.0504 3.18039 14.9417 3.21439 14.8412L4.78189 10.1984L0.719389 7.41249C0.631393 7.35221 0.564978 7.26537 0.529849 7.16466C0.49472 7.06395 0.492718 6.95464 0.524134 6.85271C0.555551 6.75078 0.618741 6.66157 0.704471 6.59811C0.790201 6.53465 0.893978 6.50027 1.00064 6.49999H6.01251L7.52501 1.8453C7.5576 1.74481 7.62117 1.65722 7.70662 1.5951C7.79207 1.53297 7.895 1.49951 8.00064 1.49951C8.10628 1.49951 8.20921 1.53297 8.29466 1.5951C8.38011 1.65722 8.44368 1.74481 8.47626 1.8453L9.98876 6.50155H15.0006C15.1074 6.5015 15.2114 6.53564 15.2974 6.59898C15.3834 6.66232 15.4469 6.75152 15.4785 6.85353C15.5101 6.95554 15.5082 7.06499 15.4731 7.16586C15.438 7.26672 15.3716 7.3537 15.2835 7.41405L11.2194 10.1984L12.786 14.84C12.8113 14.9151 12.8185 14.9952 12.8068 15.0737C12.7951 15.1521 12.7649 15.2267 12.7187 15.2912C12.6725 15.3557 12.6116 15.4082 12.5411 15.4445C12.4706 15.4808 12.3925 15.4998 12.3131 15.5Z" fill="#FF8682"/>
</svg>
