<svg width="16" height="16" viewBox="0 0 16 16" fill="none" xmlns="http://www.w3.org/2000/svg">
<path d="M8.47656 12.0169V14.0061C8.47656 14.1325 8.42629 14.2547 8.33691 14.344C8.24757 14.4332 8.12626 14.4827 8 14.4827C7.87374 14.4827 7.75243 14.4332 7.66309 14.344C7.57371 14.2547 7.52344 14.1325 7.52344 14.0061V12.0169H8.47656ZM8 1.51688C9.25092 1.51688 10.4312 1.967 11.3232 2.78445C12.0904 3.48648 12.6127 4.41312 12.8555 5.49442C12.8772 5.59197 12.9265 5.68147 12.9971 5.75223C13.0676 5.82294 13.1565 5.87284 13.2539 5.89481C13.7478 6.00659 14.219 6.2013 14.6201 6.46414L14.7881 6.58133C15.5661 7.15775 15.9766 7.95333 15.9766 8.88113C15.9765 9.83748 15.5955 10.6396 14.875 11.2005C14.238 11.6957 13.3503 11.97 12.375 11.97H8.52344V7.25613L9.63086 8.36356C9.6796 8.41227 9.73708 8.45153 9.80078 8.47781C9.8645 8.5041 9.93303 8.51705 10.002 8.51688C10.0709 8.51669 10.1395 8.50346 10.2031 8.47684C10.2667 8.45021 10.3246 8.41057 10.373 8.3616C10.5777 8.15459 10.565 7.81751 10.3604 7.61258L8.37012 5.62332C8.27196 5.52523 8.13876 5.47 8 5.47C7.86124 5.47 7.72804 5.52523 7.62988 5.62332L5.63965 7.61356C5.44127 7.81201 5.42234 8.13606 5.6123 8.345C5.65994 8.39747 5.71778 8.44053 5.78223 8.47C5.84663 8.49943 5.91652 8.51516 5.9873 8.51688C6.05811 8.51858 6.12858 8.50607 6.19434 8.47977C6.26013 8.45344 6.32001 8.41366 6.37012 8.36356L7.47656 7.25711V11.97H4.25C3.12162 11.97 2.07038 11.5979 1.29004 10.9241C0.473359 10.2173 0.0234375 9.24004 0.0234375 8.16824C0.0234888 7.10785 0.440961 6.17935 1.23145 5.48074C1.80422 4.97599 2.5553 4.61949 3.3877 4.45145C3.46773 4.43529 3.54318 4.40027 3.60742 4.34988C3.67149 4.29956 3.7231 4.23511 3.75781 4.16141C4.06261 3.51969 4.50973 2.95558 5.06543 2.51297C5.8851 1.86119 6.90038 1.51688 8 1.51688Z" fill="black" stroke="#112211" stroke-width="0.046875"/>
</svg>
